<?xml version="1.0" encoding="UTF-8"?>
<svg id="Layer_2" data-name="Layer 2" xmlns="http://www.w3.org/2000/svg" viewBox="0 0 413.26 413.28">
  <g id="Layer_1-2" data-name="Layer 1">
    <path d="M413.26,201.83v9.68c-3.81,21.24-21.93,35.79-44.32,32.92l.04,123.55c0,23.58-16.54,41.33-38.85,45.3h-74.18c-5.75-2.11-9.59-6.29-9.59-12.95l.03-95.96c0-11.56-8.83-20.73-20.38-20.73h-38.72c-11.61,0-20.42,9.16-20.42,20.75l.03,95.92c0,6.66-3.82,10.83-9.56,12.98h-74.17c-22.46,0-38.88-24.17-38.88-44.9v-123.97c-18.03,2.27-33.66-6.78-40.68-21.68s-3.28-33.32,9.61-45.01L180.15,10.87c14.82-14.81,38.75-14.3,53.41.36l168.52,168.5c6.39,6.39,9.21,13.88,11.18,22.09Z"/>
  </g>
</svg>