<?xml version="1.0" encoding="UTF-8"?>
<svg id="Layer_2" data-name="Layer 2" xmlns="http://www.w3.org/2000/svg" viewBox="0 0 383.38 383.27">
  <g id="Layer_1-2" data-name="Layer 1">
    <path d="M164.68,0c.76.43,2.19.59,3.47.7,54.59,4.68,102.26,39.12,124.81,86.43,25.58,53.66,18.8,114.96-17.01,161.61l102.74,103.04c7.52,7.54,5.27,19.98-1.62,26.29-7.59,6.96-18.97,7.06-26.52-.48l-101.74-101.67c-46.71,35.87-107.97,42.66-161.54,17.12C39.75,270.38,5.4,222.96.71,168.12c-.11-1.24-.28-2.68-.71-3.44v-20.96C0,65.77,66.46,6.16,144.47,0h20.21ZM270.07,154.21c0-64-51.88-115.87-115.87-115.87s-115.87,51.88-115.87,115.87,51.88,115.87,115.87,115.87,115.87-51.88,115.87-115.87Z"/>
  </g>
</svg>