<?xml version="1.0" encoding="UTF-8"?>
<svg id="Layer_2" data-name="Layer 2" xmlns="http://www.w3.org/2000/svg" viewBox="0 0 351.35 351.4">
  <g id="Layer_1-2" data-name="Layer 1">
    <path d="M351.35,47.78c0-26.28-21.47-47.72-47.71-47.72L48.56,0C21.47,0-.01,21.42,0,48.55l.14,255.77c.01,26.48,22.32,47.07,48.37,47.07h254.39c26.52,0,48.45-20.99,48.45-47.8V47.78ZM298.24,134.04h-165.64v168.27c0,11.39-9.24,20.63-20.63,20.63h0c-11.39,0-20.63-9.24-20.63-20.63v-168.27h-38.23c-11.39,0-20.63-9.24-20.63-20.63s9.24-20.63,20.63-20.63h38.23v-35.6c0-11.39,9.24-20.63,20.63-20.63h0c11.39,0,20.63,9.24,20.63,20.63v35.6h165.64c11.39,0,20.63,9.24,20.63,20.63s-9.24,20.63-20.63,20.63Z"/>
  </g>
</svg>