<?xml version="1.0" encoding="UTF-8"?>
<svg id="Layer_2" data-name="Layer 2" xmlns="http://www.w3.org/2000/svg" viewBox="0 0 383.28 232.04">
  <g id="Layer_1-2" data-name="Layer 1">
    <g>
      <path d="M337.71,207.13H45.12c-5.44,0-9.79-5.09-9.79-10.37V10.59C35.32,4.7,39.82,0,45.82,0h291.65c5.99,0,10.5,4.67,10.5,10.59v185.43c.01,5.64-3.76,11.12-10.25,11.12ZM195.23,8.02c0-1.87-1.52-3.39-3.39-3.39s-3.39,1.52-3.39,3.39,1.52,3.39,3.39,3.39,3.39-1.52,3.39-3.39ZM331.85,16.06H51.81v174.97h280.04V16.06Z"/>
      <path d="M383.28,213.28v6.04c-2.33,7.11-7.47,12.72-15.86,12.72H15.88c-10.27,0-17.14-9-15.69-18.77h155.05s.31,6.49.31,6.49l72.47.02.54-6.51h154.72ZM35.21,222.31v1.5h16.47v-1.5h-16.47Z"/>
    </g>
  </g>
</svg>