<?xml version="1.0" encoding="UTF-8"?>
<svg id="Layer_2" data-name="Layer 2" xmlns="http://www.w3.org/2000/svg" viewBox="0 0 335.39 311.59">
  <g id="Layer_1-2" data-name="Layer 1">
    <g>
      <g>
        <path d="M159.4,281.97l-107.67.03c-27.51,0-51.39-22-51.42-49.92L.14,102.98h281.88s-.06,22.44-.06,22.44c-42.6-11.98-86.77,2.8-113.45,36.31-27.17,34.13-31.26,81.16-9.11,120.25Z"/>
        <path d="M335.39,228.44c0,45.92-37.23,83.15-83.15,83.15s-83.15-37.23-83.15-83.15,37.23-83.15,83.15-83.15,83.15,37.23,83.15,83.15ZM276.02,240.43c7.13-.02,11.91-6.26,11.71-12.36s-5.36-11.52-12.12-11.53l-11.35-.03-.12-12.83c-.06-6.63-5.32-11.59-11.51-11.8s-12.25,4.45-12.28,11.05l-.12,25.53c-.03,6.62,5.46,12.05,12.08,12.03l23.71-.06Z"/>
      </g>
      <g>
        <path d="M88.58,19.39h-23.95s.02-7.34.02-7.34c.02-6.76,5.29-11.82,11.47-12.04,6.66-.23,12.45,5.01,12.45,12v7.38Z"/>
        <path d="M64.62,19.38l-.02,30.89c-.01,6.92,4.98,12.3,11.57,12.54,6.35.23,12.39-4.87,12.39-11.79v-31.64s105.34-.03,105.34-.03c-.16-2.82-.25-4.98-.26-7.32-.02-6.81,5.48-11.94,11.9-12.03,6.19-.09,11.91,4.85,11.98,11.6l.08,7.75-23.98.02.16,32.39c.03,6.68,6.52,11.35,12.42,11.05,6.17-.32,11.38-5.37,11.39-11.98l.04-31.47,15.25.13c30.93.25,53.03,29.15,48.85,59.54H.53C-3.73,49.08,18.13,21.32,48.72,19.52c5.6-.33,10.74-.15,15.9-.14Z"/>
      </g>
    </g>
  </g>
</svg>