<?xml version="1.0" encoding="UTF-8"?>
<svg id="Layer_2" data-name="Layer 2" xmlns="http://www.w3.org/2000/svg" viewBox="0 0 383.27 263.04">
  <g id="Layer_1-2" data-name="Layer 1">
    <path d="M0,215.36v-38.18c2.01-5.68,6.42-8.82,12.63-9.02,20.36-.65,35.2-16.51,35.21-36.64,0-20.13-14.84-36.02-35.2-36.64-6.23-.19-10.6-3.36-12.64-9.02v-38.18c.82-13.17,7.21-26.54,17.15-35.11C26.44,4.57,38.32.24,50.75.23l189.7-.23.08,34.88c.02,6.86,5,11.64,11.39,11.55s11.03-4.84,11.04-11.45l.04-34.96,66.34.03c21.67,0,41.83,10,49.67,31,2.07,5.54,3.95,11.55,3.98,17.61l.2,34.93c.04,7.13-6.02,11.07-12.57,11.29-20.4.67-35.22,16.51-35.22,36.65s14.86,35.97,35.21,36.64c7.05.23,12.73,4.55,12.67,12.03l-.27,34.19c-.05,5.86-1.84,11.69-3.79,17.08-7.68,21.29-27.99,31.52-49.86,31.53l-66.36.03.02-34.2c0-6.89-4.19-12.1-11.13-12.22-5.74-.1-11.27,4.28-11.3,10.9l-.13,35.52-189.1-.15c-12.57,0-24.36-4.42-33.77-11.97-11.25-9.03-15.34-22.08-17.58-35.56ZM263,106.49v-22.12c0-6.85-4.36-11.97-11.1-12.08-6.16-.1-11.36,4.59-11.37,11.4l-.04,23.12c-.01,6.94,4.95,11.9,11.43,11.78,6.51-.12,11.09-4.99,11.09-12.1ZM262.97,179.11l.03-22.88c0-7-4.95-12-11.77-11.76-6.12.22-10.75,5.08-10.74,11.78l.04,23.11c.01,6.77,5.13,11.49,11.37,11.39,6.18-.1,11.05-4.69,11.06-11.64Z"/>
  </g>
</svg>