<?xml version="1.0" encoding="UTF-8"?>
<svg id="Layer_2" data-name="Layer 2" xmlns="http://www.w3.org/2000/svg" viewBox="0 0 408.86 385.15">
  <g id="Layer_1-2" data-name="Layer 1">
    <path d="M0,330.62v-11.98c1.6-7.81,3.75-15.29,7.84-22.8L152.99,29.33C163.29,10.42,184.07-.12,204.78,0c20.37.12,40.88,10.66,51.05,29.32l145.43,267.05c6.23,11.43,8.87,24.09,7.03,36.56-4.49,30.51-29.57,52.21-60.32,52.21l-287.91-.05c-31.94,0-56.17-23.92-60.05-54.47ZM228.34,240.8l-.05-119.31c0-13.7-11.37-23.86-24.2-23.7-12.6.17-23.58,10.23-23.58,23.7l-.03,119.66c0,13.84,11.17,24.3,24.29,24.08s23.57-10.41,23.57-24.43ZM228.26,313.25c0-13.18-10.68-23.86-23.86-23.86s-23.86,10.68-23.86,23.86,10.68,23.86,23.86,23.86,23.86-10.68,23.86-23.86Z"/>
  </g>
</svg>